<svg xmlns="http://www.w3.org/2000/svg" width="18" height="18.005" viewBox="0 0 18 18.005">
  <path id="about" d="M138.4,192a9,9,0,1,1,9-9.013A9,9,0,0,1,138.4,192Zm1.573-7.029h0V181.8c0-.075,0-.155-.005-.23a1.354,1.354,0,0,0-.374-.909,1.59,1.59,0,0,0-1.407-.5,1.521,1.521,0,0,0-1.348,1.492c.011,2.209.005,4.418.005,6.628a1.779,1.779,0,0,0,.037.374,1.581,1.581,0,0,0,1.947,1.086,1.5,1.5,0,0,0,1.145-1.46C139.97,187.185,139.975,186.078,139.975,184.976Zm.107-7.093a1.682,1.682,0,1,0-1.68,1.685A1.679,1.679,0,0,0,140.082,177.883Z" transform="translate(-129.4 -174)"/>
</svg>
