<svg xmlns="http://www.w3.org/2000/svg" width="17.567" height="10.726" viewBox="0 0 17.567 10.726">
  <path id="arrow" d="M110.737,209.113c.737-.737,1.451-1.455,2.17-2.174,1.1-1.1,2.2-2.205,3.3-3.3a1.934,1.934,0,0,1,3.261.975,1.866,1.866,0,0,1-.539,1.779q-1.806,1.812-3.62,3.62-1.6,1.6-3.2,3.2a1.923,1.923,0,0,1-2.327.323,2.086,2.086,0,0,1-.422-.319q-3.416-3.409-6.828-6.828a1.935,1.935,0,0,1,1.06-3.288,1.87,1.87,0,0,1,1.7.566q2.385,2.392,4.779,4.779C110.292,208.663,110.512,208.883,110.737,209.113Z" transform="translate(-101.949 -203.06)"/>
</svg>
