<svg xmlns="http://www.w3.org/2000/svg" width="17.572" height="16.913" viewBox="0 0 17.572 16.913">
  <path id="Path_83" data-name="Path 83" d="M136.636,152.5h-15.5a1.038,1.038,0,0,0-1.037,1.037v14.84a1.038,1.038,0,0,0,1.037,1.037h15.5a1.038,1.038,0,0,0,1.037-1.037v-14.84A1.038,1.038,0,0,0,136.636,152.5Zm-14.651,3.667a.328.328,0,0,1,.327-.327h3.17a.328.328,0,0,1,.327.327v2.589a.328.328,0,0,1-.327.327h-3.17a.328.328,0,0,1-.327-.327Zm8.653,10.684a.338.338,0,0,1-.336.336h-7.98a.338.338,0,0,1-.336-.336v-6.335a.338.338,0,0,1,.336-.336H130.3a.338.338,0,0,1,.336.336v6.335Zm0-8.1a.33.33,0,0,1-.332.332h-3.161a.33.33,0,0,1-.332-.332v-2.58a.33.33,0,0,1,.332-.332H130.3a.33.33,0,0,1,.332.332v2.58Zm4.875,8.1a.338.338,0,0,1-.336.336h-3.147a.338.338,0,0,1-.336-.336v-6.335a.338.338,0,0,1,.336-.336h3.147a.338.338,0,0,1,.336.336Zm0-8.1a.328.328,0,0,1-.327.327h-3.161a.328.328,0,0,1-.327-.327v-2.585a.328.328,0,0,1,.327-.327h3.161a.328.328,0,0,1,.327.327Z" transform="translate(-120.1 -152.5)"/>
</svg>
