<svg id="filter" xmlns="http://www.w3.org/2000/svg" width="20.959" height="17.687" viewBox="0 0 20.959 17.687">
  <path id="Path_1" data-name="Path 1" d="M89.848,150.591c.484.005.974.01,1.458-.005a.325.325,0,0,1,.353.222,2.411,2.411,0,0,0,4.349-.005.331.331,0,0,1,.353-.222c2.659.01,5.317.005,7.981.005h4.782a.8.8,0,0,0,.2-1.584,1.39,1.39,0,0,0-.323-.02H96.123a.935.935,0,0,1-.05-.081,2.429,2.429,0,0,0-4.47-.05.29.29,0,0,1-.227.126c-.51.01-1.024.005-1.534.005a.8.8,0,0,0-.842.8A.807.807,0,0,0,89.848,150.591Z" transform="translate(-88.993 -147.397)"/>
  <path id="Path_2" data-name="Path 2" d="M89.473,278.073a1.533,1.533,0,0,0,.373.03H102.7c.02.035.035.055.045.076a2.429,2.429,0,0,0,4.47.061.293.293,0,0,1,.222-.131c.494-.01.989-.005,1.483-.005a.812.812,0,1,0,.01-1.614h-1.65l-.04-.061c-.015-.03-.025-.061-.04-.091a2.329,2.329,0,0,0-2.21-1.438,2.294,2.294,0,0,0-2.194,1.413c-.081.172-.187.177-.333.177H92.646c-.989,0-1.983-.005-2.971,0a.805.805,0,0,0-.2,1.584Z" transform="translate(-88.871 -268.468)"/>
  <path id="Path_3" data-name="Path 3" d="M108.936,404.272q-4.729,0-9.464.005a.351.351,0,0,1-.378-.227,2.374,2.374,0,0,0-3.657-.832,6.806,6.806,0,0,0-.848,1,.576.576,0,0,0,.055.055H89.736a.806.806,0,1,0-.03,1.609c1.559.005,3.123.005,4.681,0a.346.346,0,0,1,.373.232,2.4,2.4,0,0,0,3.889.636,7.611,7.611,0,0,0,.621-.863h9.661a.82.82,0,0,0,.827-.5A.812.812,0,0,0,108.936,404.272Z" transform="translate(-88.867 -389.799)"/>
</svg>
