<svg xmlns="http://www.w3.org/2000/svg" xmlns:xlink="http://www.w3.org/1999/xlink" width="621" height="425" viewBox="0 0 621 425">
  <defs>
    <filter id="Rectangle_175" x="254" y="137" width="367" height="288" filterUnits="userSpaceOnUse">
      <feOffset dy="5" input="SourceAlpha"/>
      <feGaussianBlur stdDeviation="6" result="blur"/>
      <feFlood/>
      <feComposite operator="in" in2="blur"/>
      <feComposite in="SourceGraphic"/>
    </filter>
    <filter id="Rectangle_176" x="0" y="274" width="276" height="151" filterUnits="userSpaceOnUse">
      <feOffset dy="5" input="SourceAlpha"/>
      <feGaussianBlur stdDeviation="6" result="blur-2"/>
      <feFlood/>
      <feComposite operator="in" in2="blur-2"/>
      <feComposite in="SourceGraphic"/>
    </filter>
    <filter id="Rectangle_177" x="0" y="137" width="276" height="163" filterUnits="userSpaceOnUse">
      <feOffset dy="5" input="SourceAlpha"/>
      <feGaussianBlur stdDeviation="6" result="blur-3"/>
      <feFlood/>
      <feComposite operator="in" in2="blur-3"/>
      <feComposite in="SourceGraphic"/>
    </filter>
    <filter id="Rectangle_178" x="0" y="0" width="621" height="162" filterUnits="userSpaceOnUse">
      <feOffset dy="5" input="SourceAlpha"/>
      <feGaussianBlur stdDeviation="6" result="blur-4"/>
      <feFlood/>
      <feComposite operator="in" in2="blur-4"/>
      <feComposite in="SourceGraphic"/>
    </filter>
    <filter id="Path_222" x="82.24" y="31.524" width="468.571" height="95.553" filterUnits="userSpaceOnUse">
      <feOffset dy="3" input="SourceAlpha"/>
      <feGaussianBlur stdDeviation="3" result="blur-5"/>
      <feFlood flood-opacity="0.306"/>
      <feComposite operator="in" in2="blur-5"/>
      <feComposite in="SourceGraphic"/>
    </filter>
    <filter id="Path_224" x="301.996" y="212" width="117.056" height="134.169" filterUnits="userSpaceOnUse">
      <feOffset dy="3" input="SourceAlpha"/>
      <feGaussianBlur stdDeviation="3" result="blur-6"/>
      <feFlood flood-opacity="0.447"/>
      <feComposite operator="in" in2="blur-6"/>
      <feComposite in="SourceGraphic"/>
    </filter>
    <filter id="Path_224-2" x="437.996" y="212" width="117.056" height="134.169" filterUnits="userSpaceOnUse">
      <feOffset dy="3" input="SourceAlpha"/>
      <feGaussianBlur stdDeviation="3" result="blur-7"/>
      <feFlood flood-opacity="0.447"/>
      <feComposite operator="in" in2="blur-7"/>
      <feComposite in="SourceGraphic"/>
    </filter>
    <filter id="Rectangle_152" x="115.505" y="210.058" width="26.535" height="46.589" filterUnits="userSpaceOnUse">
      <feOffset dy="3" input="SourceAlpha"/>
      <feGaussianBlur stdDeviation="3" result="blur-8"/>
      <feFlood flood-opacity="0.302"/>
      <feComposite operator="in" in2="blur-8"/>
      <feComposite in="SourceGraphic"/>
    </filter>
    <filter id="Rectangle_153" x="44.219" y="205.916" width="26.535" height="50.731" filterUnits="userSpaceOnUse">
      <feOffset dy="3" input="SourceAlpha"/>
      <feGaussianBlur stdDeviation="3" result="blur-9"/>
      <feFlood flood-opacity="0.302"/>
      <feComposite operator="in" in2="blur-9"/>
      <feComposite in="SourceGraphic"/>
    </filter>
    <filter id="Rectangle_154" x="62.04" y="199.093" width="26.535" height="57.553" filterUnits="userSpaceOnUse">
      <feOffset dy="3" input="SourceAlpha"/>
      <feGaussianBlur stdDeviation="3" result="blur-10"/>
      <feFlood flood-opacity="0.302"/>
      <feComposite operator="in" in2="blur-10"/>
      <feComposite in="SourceGraphic"/>
    </filter>
    <filter id="Rectangle_155" x="79.862" y="201.263" width="26.535" height="55.383" filterUnits="userSpaceOnUse">
      <feOffset dy="3" input="SourceAlpha"/>
      <feGaussianBlur stdDeviation="3" result="blur-11"/>
      <feFlood flood-opacity="0.302"/>
      <feComposite operator="in" in2="blur-11"/>
      <feComposite in="SourceGraphic"/>
    </filter>
    <filter id="Rectangle_156" x="97.684" y="188.616" width="26.535" height="68.03" filterUnits="userSpaceOnUse">
      <feOffset dy="3" input="SourceAlpha"/>
      <feGaussianBlur stdDeviation="3" result="blur-12"/>
      <feFlood flood-opacity="0.302"/>
      <feComposite operator="in" in2="blur-12"/>
      <feComposite in="SourceGraphic"/>
    </filter>
    <filter id="Rectangle_157" x="133.327" y="188.86" width="26.535" height="67.786" filterUnits="userSpaceOnUse">
      <feOffset dy="3" input="SourceAlpha"/>
      <feGaussianBlur stdDeviation="3" result="blur-13"/>
      <feFlood flood-opacity="0.302"/>
      <feComposite operator="in" in2="blur-13"/>
      <feComposite in="SourceGraphic"/>
    </filter>
    <filter id="Rectangle_158" x="151.149" y="205.212" width="26.535" height="51.435" filterUnits="userSpaceOnUse">
      <feOffset dy="3" input="SourceAlpha"/>
      <feGaussianBlur stdDeviation="3" result="blur-14"/>
      <feFlood flood-opacity="0.302"/>
      <feComposite operator="in" in2="blur-14"/>
      <feComposite in="SourceGraphic"/>
    </filter>
    <filter id="Rectangle_159" x="168.97" y="191.053" width="26.535" height="65.594" filterUnits="userSpaceOnUse">
      <feOffset dy="3" input="SourceAlpha"/>
      <feGaussianBlur stdDeviation="3" result="blur-15"/>
      <feFlood flood-opacity="0.302"/>
      <feComposite operator="in" in2="blur-15"/>
      <feComposite in="SourceGraphic"/>
    </filter>
    <filter id="Rectangle_160" x="186.792" y="180.332" width="26.535" height="76.314" filterUnits="userSpaceOnUse">
      <feOffset dy="3" input="SourceAlpha"/>
      <feGaussianBlur stdDeviation="3" result="blur-16"/>
      <feFlood flood-opacity="0.302"/>
      <feComposite operator="in" in2="blur-16"/>
      <feComposite in="SourceGraphic"/>
    </filter>
    <filter id="Rectangle_161" x="204.614" y="190.809" width="26.535" height="65.837" filterUnits="userSpaceOnUse">
      <feOffset dy="3" input="SourceAlpha"/>
      <feGaussianBlur stdDeviation="3" result="blur-17"/>
      <feFlood flood-opacity="0.302"/>
      <feComposite operator="in" in2="blur-17"/>
      <feComposite in="SourceGraphic"/>
    </filter>
    <filter id="Rectangle_167" x="44.219" y="319.563" width="76.682" height="22.735" filterUnits="userSpaceOnUse">
      <feOffset dy="3" input="SourceAlpha"/>
      <feGaussianBlur stdDeviation="3" result="blur-18"/>
      <feFlood flood-opacity="0.302"/>
      <feComposite operator="in" in2="blur-18"/>
      <feComposite in="SourceGraphic"/>
    </filter>
    <filter id="Rectangle_168" x="44.219" y="339.789" width="139.139" height="22.735" filterUnits="userSpaceOnUse">
      <feOffset dy="3" input="SourceAlpha"/>
      <feGaussianBlur stdDeviation="3" result="blur-19"/>
      <feFlood flood-opacity="0.302"/>
      <feComposite operator="in" in2="blur-19"/>
      <feComposite in="SourceGraphic"/>
    </filter>
    <filter id="Rectangle_169" x="44.219" y="360.014" width="79.794" height="22.736" filterUnits="userSpaceOnUse">
      <feOffset dy="3" input="SourceAlpha"/>
      <feGaussianBlur stdDeviation="3" result="blur-20"/>
      <feFlood flood-opacity="0.302"/>
      <feComposite operator="in" in2="blur-20"/>
      <feComposite in="SourceGraphic"/>
    </filter>
  </defs>
  <g id="Group_430" data-name="Group 430" transform="translate(-284 -336)">
    <g transform="matrix(1, 0, 0, 1, 284, 336)" filter="url(#Rectangle_175)">
      <g id="Rectangle_175-2" data-name="Rectangle 175" transform="translate(272 150)" fill="#fff" stroke="#707070" stroke-width="1">
        <rect width="331" height="252" rx="20" stroke="none"/>
        <rect x="0.5" y="0.5" width="330" height="251" rx="19.5" fill="none"/>
      </g>
    </g>
    <g transform="matrix(1, 0, 0, 1, 284, 336)" filter="url(#Rectangle_176)">
      <g id="Rectangle_176-2" data-name="Rectangle 176" transform="translate(18 287)" fill="#fff" stroke="#707070" stroke-width="1">
        <rect width="240" height="115" rx="20" stroke="none"/>
        <rect x="0.5" y="0.5" width="239" height="114" rx="19.5" fill="none"/>
      </g>
    </g>
    <g transform="matrix(1, 0, 0, 1, 284, 336)" filter="url(#Rectangle_177)">
      <g id="Rectangle_177-2" data-name="Rectangle 177" transform="translate(18 150)" fill="#fff" stroke="#707070" stroke-width="1">
        <rect width="240" height="127" rx="20" stroke="none"/>
        <rect x="0.5" y="0.5" width="239" height="126" rx="19.5" fill="none"/>
      </g>
    </g>
    <g transform="matrix(1, 0, 0, 1, 284, 336)" filter="url(#Rectangle_178)">
      <g id="Rectangle_178-2" data-name="Rectangle 178" transform="translate(18 13)" fill="#fff" stroke="#707070" stroke-width="1">
        <rect width="585" height="126" rx="20" stroke="none"/>
        <rect x="0.5" y="0.5" width="584" height="125" rx="19.5" fill="none"/>
      </g>
    </g>
    <g transform="matrix(1, 0, 0, 1, 284, 336)" filter="url(#Path_222)">
      <g id="Path_222-2" data-name="Path 222" transform="translate(829.72 -548.08)" fill="#b42c3f">
        <path d="M -513.1991577148438 662.66015625 C -515.9864501953125 662.66015625 -518.2547607421875 660.5599365234375 -518.2605590820313 657.9765014648438 C -520.7589721679688 657.4855346679688 -523.0406494140625 656.62646484375 -525.2215576171875 655.3571166992188 C -527.2725830078125 654.1632690429688 -529.1801147460938 652.6349487304688 -531.052978515625 650.6846923828125 C -534.517578125 647.0769653320313 -537.2672729492188 642.6221923828125 -539.9264526367188 638.3140869140625 C -544.8394165039063 630.35205078125 -549.9197387695313 622.1189575195313 -558.0794677734375 622.1189575195313 C -567.3585815429688 622.1189575195313 -571.9255981445313 625.3363647460938 -577.2136840820313 629.0618286132813 C -583.1088256835938 633.2156372070313 -589.7889404296875 637.922607421875 -602.9332275390625 637.922607421875 C -606.4420166015625 637.922607421875 -609.5426635742188 637.2108764648438 -612.4122314453125 635.7467651367188 C -614.9751586914063 634.4390869140625 -617.2953491210938 632.5547485351563 -619.5052490234375 629.986083984375 C -623.5863647460938 625.2425537109375 -626.5958251953125 618.9881591796875 -629.781982421875 612.3665161132813 C -633.5182495117188 604.596435546875 -637.737548828125 595.821533203125 -643.2724609375 592.594482421875 C -644.0459594726563 594.3287353515625 -645.87841796875 595.4951171875 -647.9320678710938 595.4951171875 C -649.938720703125 595.4951171875 -651.7113647460938 594.40869140625 -652.5223388671875 592.7373657226563 C -657.9442749023438 596.0701904296875 -662.10009765625 604.7093505859375 -665.779296875 612.3576049804688 C -668.9653930664063 618.9815673828125 -671.9747924804688 625.2382202148438 -676.0564575195313 629.9837036132813 C -678.2665405273438 632.5531616210938 -680.5868530273438 634.4381103515625 -683.1500854492188 635.7461547851563 C -686.0198974609375 637.2106323242188 -689.120849609375 637.922607421875 -692.630126953125 637.922607421875 C -698.705078125 637.922607421875 -703.9456787109375 636.5973510742188 -708.6513061523438 633.8709716796875 C -712.7662353515625 631.4869384765625 -715.8553466796875 628.4385375976563 -718.8427124023438 625.4905395507813 C -724.1145629882813 620.2897338867188 -728.66748046875 615.798095703125 -737.4839477539063 615.798095703125 L -737.9839477539063 615.798095703125 L -737.9839477539063 615.298095703125 L -737.9839477539063 614.0748291015625 L -737.9839477539063 613.5748291015625 L -737.4839477539063 613.5748291015625 C -732.9961547851563 613.5748291015625 -729.2612915039063 614.568359375 -725.7300415039063 616.7015991210938 C -722.5833129882813 618.6026000976563 -719.9534301757813 621.1967163085938 -717.1690673828125 623.9432373046875 C -711.5849609375 629.4536743164063 -705.2557373046875 635.6993408203125 -692.630126953125 635.6993408203125 C -686.69091796875 635.6993408203125 -681.9413452148438 633.359375 -677.6829223632813 628.3353271484375 C -673.858154296875 623.822998046875 -670.9637451171875 617.8037719726563 -667.8994140625 611.43115234375 C -665.8456420898438 607.1636962890625 -663.7220458984375 602.7511596679688 -661.2728881835938 598.9405517578125 C -658.5410766601563 594.6902465820313 -655.8211669921875 591.8910522460938 -652.9667358398438 590.3946533203125 C -652.8632202148438 589.2702026367188 -652.3339233398438 588.2286987304688 -651.4561157226563 587.4352416992188 C -650.5084228515625 586.5787353515625 -649.2569580078125 586.1069946289063 -647.9320678710938 586.1069946289063 C -645.3592529296875 586.1069946289063 -643.2184448242188 587.9037475585938 -642.9229736328125 590.25048828125 C -636.2991943359375 593.4863891601563 -631.7163696289063 603.0130615234375 -627.666748046875 611.4310302734375 C -624.5997924804688 617.8054809570313 -621.7032470703125 623.82568359375 -617.879638671875 628.3361206054688 C -613.6209716796875 633.359619140625 -608.8716430664063 635.6993408203125 -602.9332275390625 635.6993408203125 C -590.5601196289063 635.6993408203125 -584.2105102539063 631.2267456054688 -578.6083984375 627.2806396484375 L -578.6040649414063 627.277587890625 C -572.9815063476563 623.316162109375 -568.126708984375 619.8956298828125 -558.0794677734375 619.8956298828125 C -555.820068359375 619.8956298828125 -553.6444091796875 620.4130249023438 -551.6130981445313 621.4334716796875 C -549.7957153320313 622.346435546875 -548.0713500976563 623.6522827148438 -546.3414306640625 625.4255981445313 C -543.16845703125 628.6784057617188 -540.5028686523438 632.997802734375 -537.925048828125 637.1751098632813 C -532.8615112304688 645.3795776367188 -527.6298828125 653.8566284179688 -517.692138671875 655.8071899414063 C -516.8271484375 654.255126953125 -515.1065063476563 653.2720947265625 -513.1991577148438 653.2720947265625 C -511.2849426269531 653.2720947265625 -509.5608520507813 654.2619018554688 -508.6980285644531 655.8244018554688 C -498.8289489746094 653.97412109375 -493.600830078125 646.05078125 -488.5428771972656 638.38525390625 C -485.7890014648438 634.2130737304688 -483.1901550292969 630.2755737304688 -480.0436401367188 627.2849731445313 C -478.3367004394531 625.6626586914063 -476.6271667480469 624.47216796875 -474.8173217773438 623.6454467773438 C -472.7859802246094 622.7174682617188 -470.679443359375 622.2664184570313 -468.3773193359375 622.2664184570313 C -463.8993835449219 622.2664184570313 -460.1693115234375 623.2963256835938 -456.6387023925781 625.5076293945313 C -453.4939880371094 627.4772338867188 -450.8629760742188 630.1642456054688 -448.0774841308594 633.009033203125 C -442.49169921875 638.7156982421875 -436.1631469726563 645.18115234375 -423.5155944824219 645.18115234375 C -417.5629272460938 645.18115234375 -412.8063049316406 642.68798828125 -408.54638671875 637.3349609375 C -404.7187194824219 632.5252685546875 -401.8279724121094 626.109375 -398.7675476074219 619.3167724609375 C -393.7139892578125 608.1041870117188 -387.9883728027344 595.400390625 -378.6524963378906 595.400390625 C -376.4012145996094 595.400390625 -374.2309265136719 595.9775390625 -372.2019348144531 597.1159057617188 C -370.3914794921875 598.131591796875 -368.6713256835938 599.5836791992188 -366.9431457519531 601.5549926757813 C -363.7742614746094 605.1697387695313 -361.0992126464844 609.9729614257813 -358.5122680664063 614.617919921875 L -358.5086975097656 614.624267578125 C -352.7413330078125 624.9854736328125 -346.7776489257813 635.6993408203125 -333.7828063964844 635.6993408203125 C -321.1531982421875 635.6993408203125 -314.8233642578125 629.454345703125 -309.2387084960938 623.9445190429688 L -309.2337036132813 623.9395751953125 C -306.448974609375 621.1939697265625 -303.8186950683594 618.6006469726563 -300.6714782714844 616.7005004882813 C -297.1394958496094 614.5680541992188 -293.4031982421875 613.5748291015625 -288.9130859375 613.5748291015625 L -288.4130859375 613.5748291015625 L -288.4130859375 614.0748291015625 L -288.4130859375 615.298095703125 L -288.4130859375 615.798095703125 L -288.9130859375 615.798095703125 C -297.735107421875 615.798095703125 -302.2879943847656 620.28857421875 -307.559814453125 625.4881591796875 L -307.564697265625 625.492919921875 C -310.5537109375 628.4404907226563 -313.6445007324219 631.4884033203125 -317.7603149414063 633.8720092773438 C -322.467041015625 636.5975952148438 -327.7080383300781 637.922607421875 -333.7828063964844 637.922607421875 C -337.2416076660156 637.922607421875 -340.3253173828125 637.2810668945313 -343.2103271484375 635.9613037109375 C -345.7710876464844 634.7899169921875 -348.1044921875 633.1117553710938 -350.3438110351563 630.8309326171875 C -354.4631652832031 626.6351318359375 -357.5653076171875 621.06201171875 -360.5653686523438 615.6722412109375 L -360.5697021484375 615.66455078125 C -365.5088806152344 606.7951049804688 -370.6162719726563 597.6236572265625 -378.6524963378906 597.6236572265625 C -386.4567565917969 597.6236572265625 -391.8580932617188 609.6130981445313 -396.6235961914063 620.1912231445313 C -399.8018798828125 627.2438354492188 -402.802978515625 633.9033813476563 -406.8843078613281 638.9520874023438 C -409.0946960449219 641.6864624023438 -411.4187622070313 643.692626953125 -413.9892578125 645.085205078125 C -416.869873046875 646.6458129882813 -419.9859924316406 647.4044189453125 -423.5155944824219 647.4044189453125 C -429.6117553710938 647.4044189453125 -434.8662719726563 646.0319213867188 -439.5794372558594 643.2085571289063 C -443.69970703125 640.7402954101563 -446.7890930175781 637.5842895507813 -449.7767639160156 634.5321044921875 C -455.0548706054688 629.14208984375 -459.610595703125 624.48974609375 -468.3773193359375 624.48974609375 C -476.619873046875 624.48974609375 -481.4533081054688 631.8158569335938 -486.570556640625 639.5721435546875 C -489.2315979003906 643.6044921875 -491.9832763671875 647.7739868164063 -495.4358215332031 651.1524658203125 C -497.3026428222656 652.9793090820313 -499.2010498046875 654.4121704101563 -501.2393188476563 655.5327758789063 C -503.4032287597656 656.722412109375 -505.6639709472656 657.5302124023438 -508.1363525390625 657.9959106445313 C -508.1534729003906 660.5704956054688 -510.4180603027344 662.66015625 -513.1991577148438 662.66015625 Z" stroke="none"/>
        <path d="M -647.93212890625 586.6069946289063 C -650.4190673828125 586.6069946289063 -652.4310302734375 588.4371337890625 -652.4843139648438 590.7099609375 C -658.9006958007813 593.8867797851563 -663.394287109375 603.2230224609375 -667.4488525390625 611.6478271484375 C -673.5206298828125 624.274658203125 -679.2571411132813 636.1993408203125 -692.630126953125 636.1993408203125 C -705.4590454101563 636.1993408203125 -711.8661499023438 629.8786010742188 -717.5202026367188 624.2991333007813 C -723.082275390625 618.812744140625 -727.8859252929688 614.0748291015625 -737.48388671875 614.0748291015625 L -737.48388671875 615.298095703125 C -728.4647216796875 615.298095703125 -723.8433227539063 619.8549194335938 -718.4915771484375 625.1346435546875 C -712.6552734375 630.8939208984375 -706.039306640625 637.422607421875 -692.630126953125 637.422607421875 C -678.3908081054688 637.422607421875 -672.4840087890625 625.143310546875 -666.2298583984375 612.1408081054688 C -662.3577880859375 604.091552734375 -658.0677490234375 595.1895751953125 -652.2767333984375 592.016357421875 C -651.7072143554688 593.7351684570313 -649.9893188476563 594.9951171875 -647.93212890625 594.9951171875 C -645.8204345703125 594.9951171875 -644.0599975585938 593.6678466796875 -643.541015625 591.8768920898438 C -637.6195068359375 594.9266357421875 -633.2615356445313 603.9765625 -629.3321533203125 612.148193359375 C -623.078125 625.1456909179688 -617.1713256835938 637.422607421875 -602.9332275390625 637.422607421875 C -589.947509765625 637.422607421875 -583.338134765625 632.765625 -577.5030517578125 628.6541137695313 C -572.1445922851563 624.8790283203125 -567.5178833007813 621.6189575195313 -558.0794677734375 621.6189575195313 C -549.6417236328125 621.6189575195313 -544.4882202148438 629.9691162109375 -539.5009155273438 638.051513671875 C -534.1490478515625 646.72216796875 -528.6241455078125 655.6400146484375 -517.7181396484375 657.5691528320313 C -517.7313842773438 657.702392578125 -517.7606201171875 657.8308715820313 -517.7606201171875 657.9666748046875 C -517.7606201171875 660.2823486328125 -515.7181396484375 662.16015625 -513.1991577148438 662.16015625 C -510.678955078125 662.16015625 -508.6362915039063 660.2823486328125 -508.6362915039063 657.9666748046875 C -508.6362915039063 657.835693359375 -508.6656494140625 657.712158203125 -508.6788940429688 657.5850830078125 C -497.8646850585938 655.7513427734375 -492.3411254882813 647.408447265625 -486.9878540039063 639.2968139648438 C -481.7943725585938 631.4249267578125 -476.8868408203125 623.98974609375 -468.3773193359375 623.98974609375 C -459.3994140625 623.98974609375 -454.7766723632813 628.7115478515625 -449.4208374023438 634.180908203125 C -443.5831909179688 640.14453125 -436.9672241210938 646.9044189453125 -423.515625 646.9044189453125 C -409.2096557617188 646.9044189453125 -403.31884765625 633.8310546875 -397.0794677734375 619.98583984375 C -392.2518310546875 609.269775390625 -386.7774658203125 597.1236572265625 -378.6524658203125 597.1236572265625 C -370.320068359375 597.1236572265625 -365.1409912109375 606.4280395507813 -360.1284790039063 615.4290771484375 C -354.10986328125 626.2418212890625 -347.8850708007813 637.422607421875 -333.7828369140625 637.422607421875 C -320.3723754882813 637.422607421875 -313.7537231445313 630.8939208984375 -307.9135131835938 625.1346435546875 C -302.5615844726563 619.8561401367188 -297.9415893554688 615.298095703125 -288.9130859375 615.298095703125 L -288.9130859375 614.0748291015625 C -298.51904296875 614.0748291015625 -303.32275390625 618.8138427734375 -308.8875732421875 624.3004150390625 C -314.54150390625 629.8786010742188 -320.9525756835938 636.1993408203125 -333.7828369140625 636.1993408203125 C -347.0706787109375 636.1993408203125 -353.1066284179688 625.3572998046875 -358.945556640625 614.8675537109375 C -364.1390380859375 605.5423583984375 -369.5069580078125 595.900390625 -378.6524658203125 595.900390625 C -387.6663818359375 595.900390625 -393.3203735351563 608.4476928710938 -398.3116455078125 619.5221557617188 C -404.372802734375 632.9747314453125 -410.0985717773438 645.68115234375 -423.515625 645.68115234375 C -436.3750610351563 645.68115234375 -442.7794799804688 639.136474609375 -448.4347534179688 633.35888671875 C -453.9996337890625 627.6754760742188 -458.8073120117188 622.7664184570313 -468.3773193359375 622.7664184570313 C -477.6360473632813 622.7664184570313 -482.7310791015625 630.48779296875 -488.1255493164063 638.66064453125 C -493.3204345703125 646.53369140625 -498.681640625 654.6282958984375 -508.9783325195313 656.3824462890625 C -509.6596069335938 654.8521728515625 -511.2896728515625 653.7720947265625 -513.1991577148438 653.7720947265625 C -515.10205078125 653.7720947265625 -516.7307739257813 654.8447875976563 -517.4146728515625 656.3677978515625 C -527.7844848632813 654.5206298828125 -533.1497192382813 645.8646240234375 -538.3485107421875 637.4409790039063 C -543.51953125 629.0615234375 -548.8661499023438 620.3956298828125 -558.0794677734375 620.3956298828125 C -567.9689331054688 620.3956298828125 -572.761962890625 623.7731323242188 -578.3161010742188 627.6864013671875 C -583.9794921875 631.6755981445313 -590.3984985351563 636.1993408203125 -602.9332275390625 636.1993408203125 C -616.3050537109375 636.1993408203125 -622.04150390625 624.2760009765625 -628.1173095703125 611.6478271484375 C -632.2343139648438 603.0897216796875 -636.8118286132813 593.60546875 -643.3945922851563 590.5802001953125 C -643.52099609375 588.3685302734375 -645.494384765625 586.6069946289063 -647.93212890625 586.6069946289063 M -647.93212890625 585.6069946289063 C -645.2044677734375 585.6069946289063 -642.9180908203125 587.45751953125 -642.46826171875 589.9191284179688 C -635.81640625 593.3365478515625 -631.253662109375 602.8214721679688 -627.2161865234375 611.2142944335938 C -624.1634521484375 617.5590209960938 -621.2803955078125 623.55126953125 -617.498291015625 628.0127563476563 C -613.341796875 632.915771484375 -608.713623046875 635.1993408203125 -602.9332275390625 635.1993408203125 C -590.718505859375 635.1993408203125 -584.437744140625 630.7752075195313 -578.8963623046875 626.8718872070313 L -578.8919677734375 626.8688354492188 C -576.088134765625 624.8933715820313 -573.44091796875 623.0281982421875 -570.2149658203125 621.6533203125 C -566.600830078125 620.113037109375 -562.7447509765625 619.3956298828125 -558.0794677734375 619.3956298828125 C -553.6690673828125 619.3956298828125 -549.71240234375 621.25390625 -545.9835205078125 625.0764770507813 C -542.77197265625 628.3687744140625 -540.091552734375 632.712158203125 -537.49951171875 636.9125366210938 C -532.5518798828125 644.92919921875 -527.4415893554688 653.209228515625 -517.936767578125 655.2465209960938 C -516.9361572265625 653.7216186523438 -515.15625 652.7720947265625 -513.1991577148438 652.7720947265625 C -511.233642578125 652.7720947265625 -509.4487915039063 653.7293701171875 -508.4501953125 655.2662963867188 C -499.0068359375 653.3351440429688 -493.901123046875 645.5979614257813 -488.960205078125 638.1099243164063 C -486.1901245117188 633.9130859375 -483.5759887695313 629.9525146484375 -480.3881225585938 626.922607421875 C -478.640380859375 625.261474609375 -476.8861083984375 624.0407104492188 -475.0250854492188 623.190673828125 C -472.9271240234375 622.2322387695313 -470.7526245117188 621.7664184570313 -468.3773193359375 621.7664184570313 C -463.8013916015625 621.7664184570313 -459.9869995117188 622.8206176757813 -456.373291015625 625.0838623046875 C -453.1782836914063 627.0849609375 -450.527099609375 629.7926635742188 -447.7202758789063 632.6592407226563 C -442.2033081054688 638.2955322265625 -435.952880859375 644.68115234375 -423.515625 644.68115234375 C -417.7274169921875 644.68115234375 -413.09521484375 642.2479248046875 -408.9376831054688 637.023681640625 C -405.1488647460938 632.2628173828125 -402.2706298828125 625.8746337890625 -399.223388671875 619.1113891601563 C -394.1076049804688 607.7606811523438 -388.3114013671875 594.900390625 -378.6524658203125 594.900390625 C -374.2514038085938 594.900390625 -370.2982788085938 596.9692993164063 -366.5670776367188 601.2254638671875 C -363.3632202148438 604.880126953125 -360.675048828125 609.7069702148438 -358.0753173828125 614.3748168945313 L -358.0718994140625 614.3809814453125 C -352.3748168945313 624.6160278320313 -346.48388671875 635.1993408203125 -333.7828369140625 635.1993408203125 C -321.3582763671875 635.1993408203125 -315.1060791015625 629.0308837890625 -309.5899047851563 623.588623046875 L -309.5847778320313 623.58349609375 C -306.7783813476563 620.8165283203125 -304.1276245117188 618.203125 -300.9298706054688 616.2724609375 C -297.3165893554688 614.0908813476563 -293.4981689453125 613.0748291015625 -288.9130859375 613.0748291015625 L -287.9130859375 613.0748291015625 L -287.9130859375 614.0748291015625 L -287.9130859375 615.298095703125 L -287.9130859375 616.298095703125 L -288.9130859375 616.298095703125 C -297.5299072265625 616.298095703125 -301.8011474609375 620.5106811523438 -307.2086791992188 625.8440551757813 L -307.213623046875 625.848876953125 C -310.224853515625 628.8184204101563 -313.3386840820313 631.88916015625 -317.5097045898438 634.3046264648438 C -322.294677734375 637.0756225585938 -327.6176147460938 638.422607421875 -333.7828369140625 638.422607421875 C -337.2658081054688 638.422607421875 -340.5076904296875 637.7474975585938 -343.4183959960938 636.416015625 C -346.03564453125 635.21875 -348.417724609375 633.5064086914063 -350.7006225585938 631.1812133789063 C -354.8671875 626.9373779296875 -357.986083984375 621.3341674804688 -361.0022583007813 615.9154052734375 L -361.0064086914063 615.907958984375 C -365.8753662109375 607.1646728515625 -370.91015625 598.1236572265625 -378.6524658203125 598.1236572265625 C -381.9234619140625 598.1236572265625 -385.0715942382813 600.4056396484375 -388.276611328125 605.1000366210938 C -391.2163696289063 609.4059448242188 -393.7334594726563 614.9932250976563 -396.1677856445313 620.3965454101563 C -399.3597412109375 627.479736328125 -402.373779296875 634.1677856445313 -406.49560546875 639.2665405273438 C -408.748291015625 642.05322265625 -411.12158203125 644.100341796875 -413.7511596679688 645.52490234375 C -416.7068481445313 647.1260986328125 -419.9007568359375 647.9044189453125 -423.515625 647.9044189453125 C -429.704833984375 647.9044189453125 -435.04345703125 646.5087280273438 -439.8363647460938 643.6375122070313 C -444.0119018554688 641.1361083984375 -447.1242065429688 637.9566650390625 -450.134033203125 634.8818969726563 C -455.54736328125 629.353759765625 -459.8207397460938 624.98974609375 -468.3773193359375 624.98974609375 C -476.3507080078125 624.98974609375 -481.1121826171875 632.206787109375 -486.1531372070313 639.8475341796875 C -488.8287963867188 643.9017944335938 -491.595458984375 648.0940551757813 -495.086181640625 651.5098876953125 C -498.8396606445313 655.1829223632813 -502.9595336914063 657.4462890625 -507.6564331054688 658.4108276367188 C -507.8985595703125 661.0673828125 -510.2920532226563 663.16015625 -513.1991577148438 663.16015625 C -516.114013671875 663.16015625 -518.51220703125 661.0552368164063 -518.7424926757813 658.3876953125 C -523.48974609375 657.3703002929688 -527.6428833007813 654.9574584960938 -531.41357421875 651.0310668945313 C -534.9151000976563 647.3849487304688 -537.678955078125 642.9071044921875 -540.3518676757813 638.5767211914063 C -542.796630859375 634.6148071289063 -545.324462890625 630.5181274414063 -548.218505859375 627.4959106445313 C -551.40478515625 624.1686401367188 -554.5381469726563 622.6189575195313 -558.0794677734375 622.6189575195313 C -567.2001953125 622.6189575195313 -571.7070922851563 625.7941284179688 -576.92578125 629.4705810546875 C -579.9346923828125 631.5907592773438 -583.044677734375 633.7821655273438 -587.1502075195313 635.5025024414063 C -591.8394775390625 637.4674072265625 -597.002197265625 638.422607421875 -602.9332275390625 638.422607421875 C -606.52294921875 638.422607421875 -609.6979370117188 637.6929931640625 -612.6395263671875 636.1920776367188 C -615.261474609375 634.8543701171875 -617.6312255859375 632.9309692382813 -619.8843994140625 630.3120727539063 C -624.0084838867188 625.5185546875 -627.0318603515625 619.2352294921875 -630.232666015625 612.5830078125 C -633.8347778320313 605.0919189453125 -637.8905029296875 596.657958984375 -643.0758056640625 593.3021240234375 C -644.03564453125 594.9324340820313 -645.8844604492188 595.9951171875 -647.93212890625 595.9951171875 C -649.9302978515625 595.9951171875 -651.7186279296875 595.0079345703125 -652.69970703125 593.4468994140625 C -657.7852783203125 596.8927001953125 -661.780517578125 605.1983642578125 -665.3287353515625 612.5743408203125 C -668.529541015625 619.2288818359375 -671.5528564453125 625.514404296875 -675.6774291992188 630.3097534179688 C -677.9306640625 632.929443359375 -680.3006591796875 634.8533935546875 -682.9228515625 636.1915283203125 C -685.8646240234375 637.6928100585938 -689.0399169921875 638.422607421875 -692.630126953125 638.422607421875 C -698.7955322265625 638.422607421875 -704.1181030273438 637.0752563476563 -708.9019775390625 634.3035888671875 C -713.072021484375 631.8875732421875 -716.1842041015625 628.8164672851563 -719.1939697265625 625.846435546875 C -724.3873291015625 620.7229614257813 -728.87255859375 616.298095703125 -737.48388671875 616.298095703125 L -738.48388671875 616.298095703125 L -738.48388671875 615.298095703125 L -738.48388671875 614.0748291015625 L -738.48388671875 613.0748291015625 L -737.48388671875 613.0748291015625 C -732.901123046875 613.0748291015625 -729.0840454101563 614.0912475585938 -725.4714965820313 616.273681640625 C -722.2742919921875 618.2051391601563 -719.6239013671875 620.8194580078125 -716.8179931640625 623.5872192382813 C -711.3021240234375 629.0302734375 -705.0505981445313 635.1993408203125 -692.630126953125 635.1993408203125 C -686.8489990234375 635.1993408203125 -682.2206420898438 632.9154663085938 -678.0643310546875 628.0120239257813 C -674.281005859375 623.548583984375 -671.400146484375 617.5574340820313 -668.35009765625 611.2144775390625 C -666.2896728515625 606.933349609375 -664.1593627929688 602.5067749023438 -661.6934814453125 598.6702270507813 C -658.987548828125 594.4600830078125 -656.27978515625 591.6421508789063 -653.4320068359375 590.0770263671875 C -653.2623291015625 588.9318237304688 -652.6927490234375 587.8789672851563 -651.7913818359375 587.0643310546875 C -650.751708984375 586.1245727539063 -649.381103515625 585.6069946289063 -647.93212890625 585.6069946289063 Z" stroke="none" fill="#b42c3f"/>
      </g>
    </g>
    <g id="Group_427" data-name="Group 427" transform="translate(594.996 554)">
      <path id="Path_223" data-name="Path 223" d="M-599.994,712.9a48.384,48.384,0,0,0-10.043,7.7,47.583,47.583,0,0,0-7.708,10.046,47.734,47.734,0,0,0-4.847,11.687,48.813,48.813,0,0,0-1.647,12.555,48.828,48.828,0,0,0,1.647,12.583,47.811,47.811,0,0,0,4.847,11.69,48.3,48.3,0,0,0,7.708,10.043,48.29,48.29,0,0,0,10.043,7.708,47.8,47.8,0,0,0,11.69,4.847,47.512,47.512,0,0,0,12.583,1.676,47.476,47.476,0,0,0,12.555-1.676,47.8,47.8,0,0,0,11.69-4.847,47.39,47.39,0,0,0,9.929-7.619c.029,0,.086-.057.114-.089a48.4,48.4,0,0,0,7.708-10.043,49.011,49.011,0,0,0,4.876-11.69A48.828,48.828,0,0,0-527.2,754.9a48.812,48.812,0,0,0-1.644-12.555,48.929,48.929,0,0,0-4.876-11.687,47.68,47.68,0,0,0-7.708-10.046,47.639,47.639,0,0,0-10.043-7.7,47.811,47.811,0,0,0-11.69-4.85,47.6,47.6,0,0,0-12.555-1.673,47.632,47.632,0,0,0-12.583,1.673A47.811,47.811,0,0,0-599.994,712.9Z" transform="translate(633.819 -696.825)" fill="none"/>
      <g transform="matrix(1, 0, 0, 1, -311, -218)" filter="url(#Path_224)">
        <path id="Path_224-3" data-name="Path 224" d="M-544.919,803.459a47.8,47.8,0,0,1-11.69,4.847,47.476,47.476,0,0,1-12.555,1.676,47.512,47.512,0,0,1-12.583-1.676,47.8,47.8,0,0,1-11.69-4.847,48.29,48.29,0,0,1-10.043-7.708,48.3,48.3,0,0,1-7.708-10.043,47.811,47.811,0,0,1-4.847-11.69,48.828,48.828,0,0,1-1.647-12.583,48.813,48.813,0,0,1,1.647-12.555,47.734,47.734,0,0,1,4.847-11.687,47.583,47.583,0,0,1,7.708-10.046,48.384,48.384,0,0,1,10.043-7.7,47.811,47.811,0,0,1,11.69-4.85,47.632,47.632,0,0,1,12.583-1.673v-9.555a58.528,58.528,0,0,0-15.039,1.964,58.087,58.087,0,0,0-14.025,5.8,59.577,59.577,0,0,0-12.035,9.235A57.538,57.538,0,0,0-619.47,732.4a56.929,56.929,0,0,0-5.832,14,58.81,58.81,0,0,0-1.961,15.036,58.523,58.523,0,0,0,1.961,15.039A57.052,57.052,0,0,0-619.47,790.5a57.441,57.441,0,0,0,9.206,12.035,58.323,58.323,0,0,0,12.035,9.209,57.162,57.162,0,0,0,14.025,5.829,58.516,58.516,0,0,0,15.039,1.961,58.805,58.805,0,0,0,15.036-1.961,57.039,57.039,0,0,0,14-5.829,57.416,57.416,0,0,0,11.921-9.121l-6.783-6.783A47.39,47.39,0,0,1-544.919,803.459Z" transform="translate(938.26 -485.36)" fill="#b42c3f"/>
      </g>
      <path id="Path_225" data-name="Path 225" d="M-552.818,746.4a57.966,57.966,0,0,0-5.8-14,58.769,58.769,0,0,0-9.235-12.036,58.879,58.879,0,0,0-12.035-9.235,57.962,57.962,0,0,0-14-5.8,58.817,58.817,0,0,0-15.036-1.964v9.555a47.6,47.6,0,0,1,12.555,1.673,47.811,47.811,0,0,1,11.69,4.85,47.639,47.639,0,0,1,10.043,7.7,47.68,47.68,0,0,1,7.708,10.046,48.929,48.929,0,0,1,4.876,11.687,48.812,48.812,0,0,1,1.644,12.555,48.828,48.828,0,0,1-1.644,12.583,49.011,49.011,0,0,1-4.876,11.69,48.4,48.4,0,0,1-7.708,10.043c-.028.032-.085.089-.114.089l6.783,6.783c.028,0,.085-.057.114-.089a58.669,58.669,0,0,0,9.235-12.035,58.091,58.091,0,0,0,5.8-14.025,58.524,58.524,0,0,0,1.964-15.039A58.812,58.812,0,0,0-552.818,746.4Z" transform="translate(667.023 -703.364)" fill="#ededed"/>
    </g>
    <g id="Group_429" data-name="Group 429" transform="translate(730.996 554)">
      <path id="Path_223-2" data-name="Path 223" d="M-599.994,712.9a48.384,48.384,0,0,0-10.043,7.7,47.583,47.583,0,0,0-7.708,10.046,47.734,47.734,0,0,0-4.847,11.687,48.813,48.813,0,0,0-1.647,12.555,48.828,48.828,0,0,0,1.647,12.583,47.811,47.811,0,0,0,4.847,11.69,48.3,48.3,0,0,0,7.708,10.043,48.29,48.29,0,0,0,10.043,7.708,47.8,47.8,0,0,0,11.69,4.847,47.512,47.512,0,0,0,12.583,1.676,47.476,47.476,0,0,0,12.555-1.676,47.8,47.8,0,0,0,11.69-4.847,47.39,47.39,0,0,0,9.929-7.619c.029,0,.086-.057.114-.089a48.4,48.4,0,0,0,7.708-10.043,49.011,49.011,0,0,0,4.876-11.69A48.828,48.828,0,0,0-527.2,754.9a48.812,48.812,0,0,0-1.644-12.555,48.929,48.929,0,0,0-4.876-11.687,47.68,47.68,0,0,0-7.708-10.046,47.639,47.639,0,0,0-10.043-7.7,47.811,47.811,0,0,0-11.69-4.85,47.6,47.6,0,0,0-12.555-1.673,47.632,47.632,0,0,0-12.583,1.673A47.811,47.811,0,0,0-599.994,712.9Z" transform="translate(633.819 -696.825)" fill="none"/>
      <g transform="matrix(1, 0, 0, 1, -447, -218)" filter="url(#Path_224-2)">
        <path id="Path_224-4" data-name="Path 224" d="M-544.919,803.459a47.8,47.8,0,0,1-11.69,4.847,47.476,47.476,0,0,1-12.555,1.676,47.512,47.512,0,0,1-12.583-1.676,47.8,47.8,0,0,1-11.69-4.847,48.29,48.29,0,0,1-10.043-7.708,48.3,48.3,0,0,1-7.708-10.043,47.811,47.811,0,0,1-4.847-11.69,48.828,48.828,0,0,1-1.647-12.583,48.813,48.813,0,0,1,1.647-12.555,47.734,47.734,0,0,1,4.847-11.687,47.583,47.583,0,0,1,7.708-10.046,48.384,48.384,0,0,1,10.043-7.7,47.811,47.811,0,0,1,11.69-4.85,47.632,47.632,0,0,1,12.583-1.673v-9.555a58.528,58.528,0,0,0-15.039,1.964,58.087,58.087,0,0,0-14.025,5.8,59.577,59.577,0,0,0-12.035,9.235A57.538,57.538,0,0,0-619.47,732.4a56.929,56.929,0,0,0-5.832,14,58.81,58.81,0,0,0-1.961,15.036,58.523,58.523,0,0,0,1.961,15.039A57.052,57.052,0,0,0-619.47,790.5a57.441,57.441,0,0,0,9.206,12.035,58.323,58.323,0,0,0,12.035,9.209,57.162,57.162,0,0,0,14.025,5.829,58.516,58.516,0,0,0,15.039,1.961,58.805,58.805,0,0,0,15.036-1.961,57.039,57.039,0,0,0,14-5.829,57.416,57.416,0,0,0,11.921-9.121l-6.783-6.783A47.39,47.39,0,0,1-544.919,803.459Z" transform="translate(1074.26 -485.36)" fill="#b42c3f"/>
      </g>
      <path id="Path_225-2" data-name="Path 225" d="M-552.818,746.4a57.966,57.966,0,0,0-5.8-14,58.769,58.769,0,0,0-9.235-12.036,58.879,58.879,0,0,0-12.035-9.235,57.962,57.962,0,0,0-14-5.8,58.817,58.817,0,0,0-15.036-1.964v9.555a47.6,47.6,0,0,1,12.555,1.673,47.811,47.811,0,0,1,11.69,4.85,47.639,47.639,0,0,1,10.043,7.7,47.68,47.68,0,0,1,7.708,10.046,48.929,48.929,0,0,1,4.876,11.687,48.812,48.812,0,0,1,1.644,12.555,48.828,48.828,0,0,1-1.644,12.583,49.011,49.011,0,0,1-4.876,11.69,48.4,48.4,0,0,1-7.708,10.043c-.028.032-.085.089-.114.089l6.783,6.783c.028,0,.085-.057.114-.089a58.669,58.669,0,0,0,9.235-12.035,58.091,58.091,0,0,0,5.8-14.025,58.524,58.524,0,0,0,1.964-15.039A58.812,58.812,0,0,0-552.818,746.4Z" transform="translate(667.023 -703.364)" fill="#ededed"/>
    </g>
    <g id="Group_423" data-name="Group 423" transform="translate(337.219 522.332)">
      <g transform="matrix(1, 0, 0, 1, -53.22, -186.33)" filter="url(#Rectangle_152)">
        <rect id="Rectangle_152-2" data-name="Rectangle 152" width="8.535" height="28.589" transform="translate(124.51 216.06)" fill="#b42c3f"/>
      </g>
      <g transform="matrix(1, 0, 0, 1, -53.22, -186.33)" filter="url(#Rectangle_153)">
        <rect id="Rectangle_153-2" data-name="Rectangle 153" width="8.535" height="32.731" transform="translate(53.22 211.92)" fill="#b42c3f"/>
      </g>
      <g transform="matrix(1, 0, 0, 1, -53.22, -186.33)" filter="url(#Rectangle_154)">
        <rect id="Rectangle_154-2" data-name="Rectangle 154" width="8.535" height="39.553" transform="translate(71.04 205.09)" fill="#b42c3f"/>
      </g>
      <g transform="matrix(1, 0, 0, 1, -53.22, -186.33)" filter="url(#Rectangle_155)">
        <rect id="Rectangle_155-2" data-name="Rectangle 155" width="8.535" height="37.383" transform="translate(88.86 207.26)" fill="#b42c3f"/>
      </g>
      <g transform="matrix(1, 0, 0, 1, -53.22, -186.33)" filter="url(#Rectangle_156)">
        <rect id="Rectangle_156-2" data-name="Rectangle 156" width="8.535" height="50.03" transform="translate(106.68 194.62)" fill="#b42c3f"/>
      </g>
      <g transform="matrix(1, 0, 0, 1, -53.22, -186.33)" filter="url(#Rectangle_157)">
        <rect id="Rectangle_157-2" data-name="Rectangle 157" width="8.535" height="49.786" transform="translate(142.33 194.86)" fill="#b42c3f"/>
      </g>
      <g transform="matrix(1, 0, 0, 1, -53.22, -186.33)" filter="url(#Rectangle_158)">
        <rect id="Rectangle_158-2" data-name="Rectangle 158" width="8.535" height="33.435" transform="translate(160.15 211.21)" fill="#b42c3f"/>
      </g>
      <g transform="matrix(1, 0, 0, 1, -53.22, -186.33)" filter="url(#Rectangle_159)">
        <rect id="Rectangle_159-2" data-name="Rectangle 159" width="8.535" height="47.593" transform="translate(177.97 197.05)" fill="#b42c3f"/>
      </g>
      <g transform="matrix(1, 0, 0, 1, -53.22, -186.33)" filter="url(#Rectangle_160)">
        <rect id="Rectangle_160-2" data-name="Rectangle 160" width="8.535" height="58.314" transform="translate(195.79 186.33)" fill="#b42c3f"/>
      </g>
      <g transform="matrix(1, 0, 0, 1, -53.22, -186.33)" filter="url(#Rectangle_161)">
        <rect id="Rectangle_161-2" data-name="Rectangle 161" width="8.535" height="47.837" transform="translate(213.61 196.81)" fill="#b42c3f"/>
      </g>
    </g>
    <g id="Group_426" data-name="Group 426" transform="translate(337.219 661.563)">
      <g id="Group_424" data-name="Group 424">
        <rect id="Rectangle_162" data-name="Rectangle 162" width="168.929" height="4.735" fill="#ededed"/>
        <rect id="Rectangle_163" data-name="Rectangle 163" width="168.929" height="4.735" transform="translate(0 20.225)" fill="#ededed"/>
        <rect id="Rectangle_164" data-name="Rectangle 164" width="168.929" height="4.735" transform="translate(0 40.45)" fill="#ededed"/>
      </g>
      <g id="Group_425" data-name="Group 425">
        <g transform="matrix(1, 0, 0, 1, -53.22, -325.56)" filter="url(#Rectangle_167)">
          <rect id="Rectangle_167-2" data-name="Rectangle 167" width="58.682" height="4.735" transform="translate(53.22 325.56)" fill="#b42c3f"/>
        </g>
        <g transform="matrix(1, 0, 0, 1, -53.22, -325.56)" filter="url(#Rectangle_168)">
          <rect id="Rectangle_168-2" data-name="Rectangle 168" width="121.139" height="4.735" transform="translate(53.22 345.79)" fill="#b42c3f"/>
        </g>
        <g transform="matrix(1, 0, 0, 1, -53.22, -325.56)" filter="url(#Rectangle_169)">
          <rect id="Rectangle_169-2" data-name="Rectangle 169" width="61.794" height="4.736" transform="translate(53.22 366.01)" fill="#b42c3f"/>
        </g>
      </g>
    </g>
  </g>
</svg>
