<svg xmlns="http://www.w3.org/2000/svg" width="18" height="17.989" viewBox="0 0 18 17.989">
  <g id="Group_441" data-name="Group 441" transform="translate(-57 -1005)">
    <path id="Path_227" data-name="Path 227" d="M165.714,185H173.7v-2h-8.23c-.016.005-.027.021-.043.021a2.042,2.042,0,0,0-1.726,2.111c.016,4.586.005,9.171.005,13.757a2,2,0,0,0,2.09,2.1h7.894v-2h-7.974Z" transform="translate(-106.699 822)"/>
    <path id="Path_226" data-name="Path 226" d="M252.881,262.7c-2-1.667-3.987-3.324-6.007-5v4.008H238.9v2h7.99V267.7C248.9,266.021,250.882,264.37,252.881,262.7Z" transform="translate(-177.881 751.292)"/>
  </g>
</svg>
