<svg xmlns="http://www.w3.org/2000/svg" width="18" height="18.005" viewBox="0 0 18 18.005">
  <path id="Path_197" data-name="Path 197" d="M138.392,154.3a9,9,0,1,0,9.008,8.992A9,9,0,0,0,138.392,154.3Zm1.1,13.63a1.288,1.288,0,0,1-1.7-.005,1.081,1.081,0,0,1-.337-.792,1.024,1.024,0,0,1,.337-.781,1.2,1.2,0,0,1,.851-.316,1.186,1.186,0,0,1,.84.316,1.022,1.022,0,0,1,.332.781A1.053,1.053,0,0,1,139.488,167.929Zm1.936-6.435a2.675,2.675,0,0,1-.262.626,3.221,3.221,0,0,1-.428.567,7.486,7.486,0,0,1-.588.556c-.15.128-.278.251-.4.364a2.232,2.232,0,0,0-.284.332,1.239,1.239,0,0,0-.171.348,1.428,1.428,0,0,0-.059.417,1.4,1.4,0,0,0,.043.326.98.98,0,0,0,.112.284h-1.685a2.439,2.439,0,0,1-.1-.391,2.872,2.872,0,0,1-.037-.412,2.622,2.622,0,0,1,.059-.562,2.061,2.061,0,0,1,.46-.9,4.763,4.763,0,0,1,.4-.407c.16-.144.3-.273.428-.4a2.7,2.7,0,0,0,.31-.369,1.5,1.5,0,0,0,.193-.38,1.424,1.424,0,0,0,.064-.439,1.007,1.007,0,0,0-.07-.385.848.848,0,0,0-.2-.3.97.97,0,0,0-.321-.2,1.179,1.179,0,0,0-.417-.075,2.783,2.783,0,0,0-1.038.219,3.369,3.369,0,0,0-1.016.658v-2.017a3.864,3.864,0,0,1,1.075-.46,4.761,4.761,0,0,1,1.2-.155,4.3,4.3,0,0,1,1.107.139,2.483,2.483,0,0,1,.893.433,2.017,2.017,0,0,1,.594.754,2.563,2.563,0,0,1,.214,1.1A2.447,2.447,0,0,1,141.425,161.494Z" transform="translate(-129.4 -154.3)"/>
</svg>
