<svg xmlns="http://www.w3.org/2000/svg" width="23.36" height="29.6" viewBox="0 0 23.36 29.6">
  <path id="Path_82" data-name="Path 82" d="M191.79,248.9a3.738,3.738,0,0,1-2.68-1.17,3.431,3.431,0,0,1-.94-1.97H180.1l.17-1a1.552,1.552,0,0,1,.04-.21c.03-.16.05-.33.09-.5a11.609,11.609,0,0,1,2.47-5.05c0-1.67-.01-3.84,0-6a10.314,10.314,0,0,1,1.37-5.19,9.061,9.061,0,0,1,4.18-3.84v-1.3a3.391,3.391,0,0,1,3.37-3.37h.01a3.4,3.4,0,0,1,3.38,3.38v1.3a9.4,9.4,0,0,1,5.37,7.15,10.594,10.594,0,0,1,.17,1.94c.02,1.72.01,3.47.01,5.16v.79a11.516,11.516,0,0,1,2.56,5.52c.01.06.02.13.03.2l.01.08.13.96h-8v.35h-.09a3.54,3.54,0,0,1-.88,1.62,3.838,3.838,0,0,1-2.7,1.15Zm-9.65-4.84h7.71v1.25a1.742,1.742,0,0,0,.5,1.25,2,2,0,0,0,1.44.64h0a1.982,1.982,0,0,0,1.44-.64,1.749,1.749,0,0,0,.5-1.26l-.05-.9h.05v-.35h7.7a9.909,9.909,0,0,0-2.05-4,1.511,1.511,0,0,1-.37-1.04v-.81c0-1.69.01-3.43-.01-5.14a8.954,8.954,0,0,0-.14-1.62,7.715,7.715,0,0,0-4.75-6.08,1.047,1.047,0,0,1-.66-1.01c.01-.65.01-1.18,0-1.67a1.7,1.7,0,0,0-1.68-1.69h0a1.7,1.7,0,0,0-1.67,1.69c0,.58-.01,1.11,0,1.65a1.069,1.069,0,0,1-.71,1.06,7.293,7.293,0,0,0-3.7,3.27,8.685,8.685,0,0,0-1.14,4.35c-.01,2.18,0,4.38,0,6.04a1.525,1.525,0,0,1-.36,1.01A9.967,9.967,0,0,0,182.14,244.06Z" transform="translate(-180.1 -219.3)"/>
</svg>
