<svg xmlns="http://www.w3.org/2000/svg" width="18" height="17.996" viewBox="0 0 18 17.996">
  <path id="Settings_full" data-name="Settings full" d="M92.252,106.868a1.56,1.56,0,0,0-1.574-1.256c-.29,0-.443-.06-.532-.354-.1-.338-.129-.33.121-.584a1.6,1.6,0,0,0,0-2.315c-.407-.411-.809-.817-1.22-1.224a1.6,1.6,0,0,0-2.319,0c-.254.25-.246.221-.584.121-.294-.089-.358-.242-.354-.532a1.559,1.559,0,0,0-1.277-1.579.593.593,0,0,1-.089-.04H82.168a.282.282,0,0,1-.068.036,1.581,1.581,0,0,0-1.3,1.639c0,.322-.016.3-.306.455a.472.472,0,0,1-.66-.125,1.563,1.563,0,0,0-2.207-.044q-.7.664-1.361,1.365a1.537,1.537,0,0,0-.02,2.13.608.608,0,0,1,.141.85c-.077.137-.137.213-.294.189a.824.824,0,0,0-.141,0,1.6,1.6,0,0,0-1.647,1.671v1.667a1.6,1.6,0,0,0,1.655,1.659c.338,0,.338,0,.467.314,0,.008,0,.012.008.02.185.25.089.419-.117.62a1.577,1.577,0,0,0,0,2.283q.616.622,1.236,1.236a1.582,1.582,0,0,0,2.3,0,.437.437,0,0,1,.608-.121c.322.169.334.145.338.515a1.6,1.6,0,0,0,1.647,1.631h1.707a1.575,1.575,0,0,0,1.635-1.631.44.44,0,0,1,.354-.511c.338-.109.334-.129.584.117a1.605,1.605,0,0,0,2.319,0q.616-.61,1.22-1.22a1.594,1.594,0,0,0,0-2.315c-.246-.25-.226-.246-.117-.584a.44.44,0,0,1,.511-.354,1.564,1.564,0,0,0,1.57-1.16c.02-.068.044-.137.068-.205v-2.251A.526.526,0,0,1,92.252,106.868Zm-8.984,4.24a3.008,3.008,0,1,1,3.032-2.976A3.009,3.009,0,0,1,83.268,111.108Z" transform="translate(-74.3 -99.1)"/>
</svg>
