<svg xmlns="http://www.w3.org/2000/svg" width="26.375" height="21.492" viewBox="0 0 26.375 21.492">
  <path id="twitter_" data-name="twitter " d="M118.587,176.245a15.516,15.516,0,0,0,11.128,5.659c-.022-.561-.073-1.087-.051-1.619a5.4,5.4,0,0,1,3.909-4.835,5.332,5.332,0,0,1,5.294,1.356.352.352,0,0,0,.365.1,11.1,11.1,0,0,0,2.961-1.116c.073-.044.146-.073.27-.139a5.661,5.661,0,0,1-2.231,2.931,9.611,9.611,0,0,0,2.888-.766c.022.022.036.044.058.066-.43.5-.839,1.028-1.3,1.5a13.859,13.859,0,0,1-1.2,1.057.407.407,0,0,0-.175.365,15.626,15.626,0,0,1-2.91,9.531,14.447,14.447,0,0,1-9.56,6.125,15.58,15.58,0,0,1-11.113-2.071.636.636,0,0,1-.117-.095,11.034,11.034,0,0,0,7.948-2.239,5.544,5.544,0,0,1-5.053-3.77,6.022,6.022,0,0,0,2.421-.109A5.475,5.475,0,0,1,119,186.257a5.335,5.335,0,0,1-1.189-3.456,5.578,5.578,0,0,0,2.428.656,5.44,5.44,0,0,1-1.655-7.212Z" transform="translate(-116.8 -175.242)" fill="#fff"/>
</svg>
