<svg xmlns="http://www.w3.org/2000/svg" width="30.561" height="21.492" viewBox="0 0 30.561 21.492">
  <path id="youtube" d="M145.5,227.091v-2.207c.012-.023.012-.035.023-.058a2.411,2.411,0,0,0,.012-.289c.023-.971.069-1.953.162-2.924.046-.543.1-1.1.2-1.641a6.42,6.42,0,0,1,.578-1.838,3.574,3.574,0,0,1,2.67-2.046,7.807,7.807,0,0,1,1.029-.127c.6-.046,1.214-.092,1.815-.116.566-.035,1.133-.046,1.711-.058,1.167-.035,2.323-.058,3.49-.092.543-.012,1.086-.046,1.618-.046,1.422.012,2.855-.035,4.276.023.173.012.358.012.532.012.821.023,1.641.046,2.462.058,1.04.023,2.08.058,3.121.092.786.023,1.572.046,2.358.127a8.806,8.806,0,0,1,1.086.162,3.53,3.53,0,0,1,2.4,1.838,6.3,6.3,0,0,1,.37.867,5.972,5.972,0,0,1,.324,1.341c.058.543.1,1.086.15,1.63.069.705.116,1.4.139,2.1.012.728.023,1.468.035,2.2,0,.786.012,1.583-.012,2.369-.023.74-.069,1.479-.116,2.219-.035.555-.1,1.109-.162,1.664a7.792,7.792,0,0,1-.485,1.919,3.69,3.69,0,0,1-.855,1.352,3.865,3.865,0,0,1-2.3,1.086c-.462.046-.913.081-1.375.116l-1.815.1c-.613.023-1.225.046-1.838.058l-2.473.069c-.555.012-1.121.035-1.676.058a.338.338,0,0,0-.1.023h-3.294c-.058-.058-.127-.035-.185-.035-.416-.012-.832,0-1.248-.012l-2.52-.069c-.543-.012-1.086-.035-1.63-.046-.728-.023-1.445-.046-2.173-.081-.589-.023-1.179-.035-1.768-.1a6.982,6.982,0,0,1-1.456-.324,3.466,3.466,0,0,1-2.184-2.069,7.812,7.812,0,0,1-.555-2.346c-.035-.485-.092-.959-.127-1.445-.046-.532-.081-1.075-.1-1.606s-.023-1.075-.046-1.606A.844.844,0,0,1,145.5,227.091Zm12.147-5.328a.087.087,0,0,0-.012.046v8.483a.036.036,0,0,1,.023.012q4.074-2.115,8.194-4.242C163.114,224.618,160.386,223.185,157.647,221.763Z" transform="translate(-145.5 -215.642)" fill="#fff"/>
</svg>
